<?xml version="1.0" encoding="UTF-8"?>
<svg width="419px" height="264px" viewBox="0 0 419 264" version="1.1" xmlns="http://www.w3.org/2000/svg" xmlns:xlink="http://www.w3.org/1999/xlink">
    <!-- Generator: Sketch 46 (44423) - http://www.bohemiancoding.com/sketch -->
    <title>Group 6</title>
    <desc>Created with Sketch.</desc>
    <defs>
        <rect id="path-1" x="0" y="0" width="40" height="40"></rect>
        <rect id="path-2" x="0" y="32" width="40" height="8"></rect>
        <rect id="path-3" x="-16" y="16" width="40" height="8"></rect>
        <rect id="path-4" x="16" y="16" width="40" height="8"></rect>
        <rect id="path-5" x="0" y="0" width="40" height="8"></rect>
        <rect id="path-6" x="0" y="0" width="40" height="40"></rect>
        <rect id="path-7" x="0" y="32" width="40" height="8"></rect>
        <rect id="path-8" x="-16" y="16" width="40" height="8"></rect>
        <rect id="path-9" x="16" y="16" width="40" height="8"></rect>
        <rect id="path-10" x="0" y="0" width="40" height="8"></rect>
        <rect id="path-11" x="0" y="0" width="40" height="40"></rect>
        <rect id="path-12" x="0" y="32" width="40" height="8"></rect>
        <rect id="path-13" x="-16" y="16" width="40" height="8"></rect>
        <rect id="path-14" x="16" y="16" width="40" height="8"></rect>
        <rect id="path-15" x="0" y="0" width="40" height="8"></rect>
        <rect id="path-16" x="0" y="0" width="40" height="40"></rect>
        <rect id="path-17" x="0" y="32" width="40" height="8"></rect>
        <rect id="path-18" x="-16" y="16" width="40" height="8"></rect>
        <rect id="path-19" x="16" y="16" width="40" height="8"></rect>
        <rect id="path-20" x="0" y="0" width="40" height="8"></rect>
        <rect id="path-21" x="0" y="0" width="40" height="40"></rect>
        <rect id="path-22" x="0" y="32" width="40" height="8"></rect>
        <rect id="path-23" x="-16" y="16" width="40" height="8"></rect>
        <rect id="path-24" x="16" y="16" width="40" height="8"></rect>
        <rect id="path-25" x="0" y="0" width="40" height="8"></rect>
        <rect id="path-26" x="0" y="0" width="40" height="40"></rect>
        <rect id="path-27" x="0" y="32" width="40" height="8"></rect>
        <rect id="path-28" x="-16" y="16" width="40" height="8"></rect>
        <rect id="path-29" x="16" y="16" width="40" height="8"></rect>
        <rect id="path-30" x="0" y="0" width="40" height="8"></rect>
        <rect id="path-31" x="0" y="0" width="40" height="40"></rect>
        <rect id="path-32" x="0" y="32" width="40" height="8"></rect>
        <rect id="path-33" x="-16" y="16" width="40" height="8"></rect>
        <rect id="path-34" x="16" y="16" width="40" height="8"></rect>
        <rect id="path-35" x="0" y="0" width="40" height="8"></rect>
        <rect id="path-36" x="0" y="0" width="40" height="40"></rect>
        <rect id="path-37" x="0" y="32" width="40" height="8"></rect>
        <rect id="path-38" x="-16" y="16" width="40" height="8"></rect>
        <rect id="path-39" x="16" y="16" width="40" height="8"></rect>
        <rect id="path-40" x="0" y="0" width="40" height="8"></rect>
        <rect id="path-41" x="0" y="0" width="40" height="40"></rect>
        <rect id="path-42" x="0" y="32" width="40" height="8"></rect>
        <rect id="path-43" x="-16" y="16" width="40" height="8"></rect>
        <rect id="path-44" x="16" y="16" width="40" height="8"></rect>
        <rect id="path-45" x="0" y="0" width="40" height="8"></rect>
        <rect id="path-46" x="0" y="0" width="40" height="40"></rect>
        <rect id="path-47" x="0" y="32" width="40" height="8"></rect>
        <rect id="path-48" x="-16" y="16" width="40" height="8"></rect>
        <rect id="path-49" x="16" y="16" width="40" height="8"></rect>
        <rect id="path-50" x="0" y="0" width="40" height="8"></rect>
        <rect id="path-51" x="0" y="0" width="40" height="40"></rect>
        <rect id="path-52" x="0" y="32" width="40" height="8"></rect>
        <rect id="path-53" x="-16" y="16" width="40" height="8"></rect>
        <rect id="path-54" x="16" y="16" width="40" height="8"></rect>
        <rect id="path-55" x="0" y="0" width="40" height="8"></rect>
        <rect id="path-56" x="103" y="147" width="350" height="180" rx="3"></rect>
        <filter x="-6.6%" y="-8.9%" width="113.1%" height="125.6%" filterUnits="objectBoundingBox" id="filter-58">
            <feOffset dx="0" dy="7" in="SourceAlpha" result="shadowOffsetOuter1"></feOffset>
            <feGaussianBlur stdDeviation="6.5" in="shadowOffsetOuter1" result="shadowBlurOuter1"></feGaussianBlur>
            <feColorMatrix values="0 0 0 0 0   0 0 0 0 0   0 0 0 0 0  0 0 0 0.109997736 0" type="matrix" in="shadowBlurOuter1"></feColorMatrix>
        </filter>
    </defs>
    <g id="Page-1" stroke="none" stroke-width="1" fill="none" fill-rule="evenodd">
        <g id="Artboard" transform="translate(-746.000000, -867.000000)">
            <g id="Group-6" transform="translate(699.000000, 784.000000)">
                <g id="CLI-box">
                    <g id="Group-5" transform="translate(103.000000, 147.000000)"></g>
                </g>
                <g id="3" transform="translate(85.000000, 234.998301)">
                    <g id="Rectangle">
                        <use fill="#EAF1CA" fill-rule="evenodd" xlink:href="#path-1"></use>
                        <rect stroke="#277A9F" stroke-width="2" x="1" y="1" width="38" height="38"></rect>
                    </g>
                    <g id="Rectangle">
                        <use fill="#EAF1CA" fill-rule="evenodd" xlink:href="#path-2"></use>
                        <rect stroke="#277A9F" stroke-width="2" x="1" y="33" width="38" height="6"></rect>
                    </g>
                    <polygon id="Path-2" stroke="#277A9F" stroke-width="2" fill="#EAF1CA" points="1.12036133 1.10986328 7.07309934 1.10986328 38.982307 33.0210452 38.982307 39.1098633 33.0931488 39.1098633 1.01576308 7.03049294"></polygon>
                    <g id="Rectangle" transform="translate(4.000000, 20.000000) rotate(-270.000000) translate(-4.000000, -20.000000) ">
                        <use fill="#EAF1CA" fill-rule="evenodd" xlink:href="#path-3"></use>
                        <rect stroke="#277A9F" stroke-width="2" x="-15" y="17" width="38" height="6"></rect>
                    </g>
                    <g id="Rectangle" transform="translate(36.000000, 20.000000) rotate(-270.000000) translate(-36.000000, -20.000000) ">
                        <use fill="#EAF1CA" fill-rule="evenodd" xlink:href="#path-4"></use>
                        <rect stroke="#277A9F" stroke-width="2" x="17" y="17" width="38" height="6"></rect>
                    </g>
                    <g id="Rectangle">
                        <use fill="#EAF1CA" fill-rule="evenodd" xlink:href="#path-5"></use>
                        <rect stroke="#277A9F" stroke-width="2" x="1" y="1" width="38" height="6"></rect>
                    </g>
                </g>
                <g id="3" transform="translate(85.000000, 196.998301)">
                    <g id="Rectangle">
                        <use fill="#EAF1CA" fill-rule="evenodd" xlink:href="#path-6"></use>
                        <rect stroke="#277A9F" stroke-width="2" x="1" y="1" width="38" height="38"></rect>
                    </g>
                    <g id="Rectangle">
                        <use fill="#EAF1CA" fill-rule="evenodd" xlink:href="#path-7"></use>
                        <rect stroke="#277A9F" stroke-width="2" x="1" y="33" width="38" height="6"></rect>
                    </g>
                    <polygon id="Path-2" stroke="#277A9F" stroke-width="2" fill="#EAF1CA" points="1.12036133 1.10986328 7.07309934 1.10986328 38.982307 33.0210452 38.982307 39.1098633 33.0931488 39.1098633 1.01576308 7.03049294"></polygon>
                    <g id="Rectangle" transform="translate(4.000000, 20.000000) rotate(-270.000000) translate(-4.000000, -20.000000) ">
                        <use fill="#EAF1CA" fill-rule="evenodd" xlink:href="#path-8"></use>
                        <rect stroke="#277A9F" stroke-width="2" x="-15" y="17" width="38" height="6"></rect>
                    </g>
                    <g id="Rectangle" transform="translate(36.000000, 20.000000) rotate(-270.000000) translate(-36.000000, -20.000000) ">
                        <use fill="#EAF1CA" fill-rule="evenodd" xlink:href="#path-9"></use>
                        <rect stroke="#277A9F" stroke-width="2" x="17" y="17" width="38" height="6"></rect>
                    </g>
                    <g id="Rectangle">
                        <use fill="#EAF1CA" fill-rule="evenodd" xlink:href="#path-10"></use>
                        <rect stroke="#277A9F" stroke-width="2" x="1" y="1" width="38" height="6"></rect>
                    </g>
                </g>
                <g id="3" transform="translate(85.000000, 272.998301)">
                    <g id="Rectangle">
                        <use fill="#EAF1CA" fill-rule="evenodd" xlink:href="#path-11"></use>
                        <rect stroke="#277A9F" stroke-width="2" x="1" y="1" width="38" height="38"></rect>
                    </g>
                    <g id="Rectangle">
                        <use fill="#EAF1CA" fill-rule="evenodd" xlink:href="#path-12"></use>
                        <rect stroke="#277A9F" stroke-width="2" x="1" y="33" width="38" height="6"></rect>
                    </g>
                    <polygon id="Path-2" stroke="#277A9F" stroke-width="2" fill="#EAF1CA" points="1.12036133 1.10986328 7.07309934 1.10986328 38.982307 33.0210452 38.982307 39.1098633 33.0931488 39.1098633 1.01576308 7.03049294"></polygon>
                    <g id="Rectangle" transform="translate(4.000000, 20.000000) rotate(-270.000000) translate(-4.000000, -20.000000) ">
                        <use fill="#EAF1CA" fill-rule="evenodd" xlink:href="#path-13"></use>
                        <rect stroke="#277A9F" stroke-width="2" x="-15" y="17" width="38" height="6"></rect>
                    </g>
                    <g id="Rectangle" transform="translate(36.000000, 20.000000) rotate(-270.000000) translate(-36.000000, -20.000000) ">
                        <use fill="#EAF1CA" fill-rule="evenodd" xlink:href="#path-14"></use>
                        <rect stroke="#277A9F" stroke-width="2" x="17" y="17" width="38" height="6"></rect>
                    </g>
                    <g id="Rectangle">
                        <use fill="#EAF1CA" fill-rule="evenodd" xlink:href="#path-15"></use>
                        <rect stroke="#277A9F" stroke-width="2" x="1" y="1" width="38" height="6"></rect>
                    </g>
                </g>
                <g id="3" transform="translate(47.000000, 272.998301)">
                    <g id="Rectangle">
                        <use fill="#EAF1CA" fill-rule="evenodd" xlink:href="#path-16"></use>
                        <rect stroke="#277A9F" stroke-width="2" x="1" y="1" width="38" height="38"></rect>
                    </g>
                    <g id="Rectangle">
                        <use fill="#EAF1CA" fill-rule="evenodd" xlink:href="#path-17"></use>
                        <rect stroke="#277A9F" stroke-width="2" x="1" y="33" width="38" height="6"></rect>
                    </g>
                    <polygon id="Path-2" stroke="#277A9F" stroke-width="2" fill="#EAF1CA" points="1.12036133 1.10986328 7.07309934 1.10986328 38.982307 33.0210452 38.982307 39.1098633 33.0931488 39.1098633 1.01576308 7.03049294"></polygon>
                    <g id="Rectangle" transform="translate(4.000000, 20.000000) rotate(-270.000000) translate(-4.000000, -20.000000) ">
                        <use fill="#EAF1CA" fill-rule="evenodd" xlink:href="#path-18"></use>
                        <rect stroke="#277A9F" stroke-width="2" x="-15" y="17" width="38" height="6"></rect>
                    </g>
                    <g id="Rectangle" transform="translate(36.000000, 20.000000) rotate(-270.000000) translate(-36.000000, -20.000000) ">
                        <use fill="#EAF1CA" fill-rule="evenodd" xlink:href="#path-19"></use>
                        <rect stroke="#277A9F" stroke-width="2" x="17" y="17" width="38" height="6"></rect>
                    </g>
                    <g id="Rectangle">
                        <use fill="#EAF1CA" fill-rule="evenodd" xlink:href="#path-20"></use>
                        <rect stroke="#277A9F" stroke-width="2" x="1" y="1" width="38" height="6"></rect>
                    </g>
                </g>
                <g id="3" transform="translate(150.000000, 120.998301)">
                    <g id="Rectangle">
                        <use fill="#EAF1CA" fill-rule="evenodd" xlink:href="#path-21"></use>
                        <rect stroke="#277A9F" stroke-width="2" x="1" y="1" width="38" height="38"></rect>
                    </g>
                    <g id="Rectangle">
                        <use fill="#EAF1CA" fill-rule="evenodd" xlink:href="#path-22"></use>
                        <rect stroke="#277A9F" stroke-width="2" x="1" y="33" width="38" height="6"></rect>
                    </g>
                    <polygon id="Path-2" stroke="#277A9F" stroke-width="2" fill="#EAF1CA" points="1.12036133 1.10986328 7.07309934 1.10986328 38.982307 33.0210452 38.982307 39.1098633 33.0931488 39.1098633 1.01576308 7.03049294"></polygon>
                    <g id="Rectangle" transform="translate(4.000000, 20.000000) rotate(-270.000000) translate(-4.000000, -20.000000) ">
                        <use fill="#EAF1CA" fill-rule="evenodd" xlink:href="#path-23"></use>
                        <rect stroke="#277A9F" stroke-width="2" x="-15" y="17" width="38" height="6"></rect>
                    </g>
                    <g id="Rectangle" transform="translate(36.000000, 20.000000) rotate(-270.000000) translate(-36.000000, -20.000000) ">
                        <use fill="#EAF1CA" fill-rule="evenodd" xlink:href="#path-24"></use>
                        <rect stroke="#277A9F" stroke-width="2" x="17" y="17" width="38" height="6"></rect>
                    </g>
                    <g id="Rectangle">
                        <use fill="#EAF1CA" fill-rule="evenodd" xlink:href="#path-25"></use>
                        <rect stroke="#277A9F" stroke-width="2" x="1" y="1" width="38" height="6"></rect>
                    </g>
                </g>
                <g id="3" transform="translate(188.000000, 120.998301)">
                    <g id="Rectangle">
                        <use fill="#EAF1CA" fill-rule="evenodd" xlink:href="#path-26"></use>
                        <rect stroke="#277A9F" stroke-width="2" x="1" y="1" width="38" height="38"></rect>
                    </g>
                    <g id="Rectangle">
                        <use fill="#EAF1CA" fill-rule="evenodd" xlink:href="#path-27"></use>
                        <rect stroke="#277A9F" stroke-width="2" x="1" y="33" width="38" height="6"></rect>
                    </g>
                    <polygon id="Path-2" stroke="#277A9F" stroke-width="2" fill="#EAF1CA" points="1.12036133 1.10986328 7.07309934 1.10986328 38.982307 33.0210452 38.982307 39.1098633 33.0931488 39.1098633 1.01576308 7.03049294"></polygon>
                    <g id="Rectangle" transform="translate(4.000000, 20.000000) rotate(-270.000000) translate(-4.000000, -20.000000) ">
                        <use fill="#EAF1CA" fill-rule="evenodd" xlink:href="#path-28"></use>
                        <rect stroke="#277A9F" stroke-width="2" x="-15" y="17" width="38" height="6"></rect>
                    </g>
                    <g id="Rectangle" transform="translate(36.000000, 20.000000) rotate(-270.000000) translate(-36.000000, -20.000000) ">
                        <use fill="#EAF1CA" fill-rule="evenodd" xlink:href="#path-29"></use>
                        <rect stroke="#277A9F" stroke-width="2" x="17" y="17" width="38" height="6"></rect>
                    </g>
                    <g id="Rectangle">
                        <use fill="#EAF1CA" fill-rule="evenodd" xlink:href="#path-30"></use>
                        <rect stroke="#277A9F" stroke-width="2" x="1" y="1" width="38" height="6"></rect>
                    </g>
                </g>
                <g id="3" transform="translate(226.000000, 120.998301)">
                    <g id="Rectangle">
                        <use fill="#EAF1CA" fill-rule="evenodd" xlink:href="#path-31"></use>
                        <rect stroke="#277A9F" stroke-width="2" x="1" y="1" width="38" height="38"></rect>
                    </g>
                    <g id="Rectangle">
                        <use fill="#EAF1CA" fill-rule="evenodd" xlink:href="#path-32"></use>
                        <rect stroke="#277A9F" stroke-width="2" x="1" y="33" width="38" height="6"></rect>
                    </g>
                    <polygon id="Path-2" stroke="#277A9F" stroke-width="2" fill="#EAF1CA" points="1.12036133 1.10986328 7.07309934 1.10986328 38.982307 33.0210452 38.982307 39.1098633 33.0931488 39.1098633 1.01576308 7.03049294"></polygon>
                    <g id="Rectangle" transform="translate(4.000000, 20.000000) rotate(-270.000000) translate(-4.000000, -20.000000) ">
                        <use fill="#EAF1CA" fill-rule="evenodd" xlink:href="#path-33"></use>
                        <rect stroke="#277A9F" stroke-width="2" x="-15" y="17" width="38" height="6"></rect>
                    </g>
                    <g id="Rectangle" transform="translate(36.000000, 20.000000) rotate(-270.000000) translate(-36.000000, -20.000000) ">
                        <use fill="#EAF1CA" fill-rule="evenodd" xlink:href="#path-34"></use>
                        <rect stroke="#277A9F" stroke-width="2" x="17" y="17" width="38" height="6"></rect>
                    </g>
                    <g id="Rectangle">
                        <use fill="#EAF1CA" fill-rule="evenodd" xlink:href="#path-35"></use>
                        <rect stroke="#277A9F" stroke-width="2" x="1" y="1" width="38" height="6"></rect>
                    </g>
                </g>
                <g id="3" transform="translate(340.000000, 120.998301)">
                    <g id="Rectangle">
                        <use fill="#EAF1CA" fill-rule="evenodd" xlink:href="#path-36"></use>
                        <rect stroke="#277A9F" stroke-width="2" x="1" y="1" width="38" height="38"></rect>
                    </g>
                    <g id="Rectangle">
                        <use fill="#EAF1CA" fill-rule="evenodd" xlink:href="#path-37"></use>
                        <rect stroke="#277A9F" stroke-width="2" x="1" y="33" width="38" height="6"></rect>
                    </g>
                    <polygon id="Path-2" stroke="#277A9F" stroke-width="2" fill="#EAF1CA" points="1.12036133 1.10986328 7.07309934 1.10986328 38.982307 33.0210452 38.982307 39.1098633 33.0931488 39.1098633 1.01576308 7.03049294"></polygon>
                    <g id="Rectangle" transform="translate(4.000000, 20.000000) rotate(-270.000000) translate(-4.000000, -20.000000) ">
                        <use fill="#EAF1CA" fill-rule="evenodd" xlink:href="#path-38"></use>
                        <rect stroke="#277A9F" stroke-width="2" x="-15" y="17" width="38" height="6"></rect>
                    </g>
                    <g id="Rectangle" transform="translate(36.000000, 20.000000) rotate(-270.000000) translate(-36.000000, -20.000000) ">
                        <use fill="#EAF1CA" fill-rule="evenodd" xlink:href="#path-39"></use>
                        <rect stroke="#277A9F" stroke-width="2" x="17" y="17" width="38" height="6"></rect>
                    </g>
                    <g id="Rectangle">
                        <use fill="#EAF1CA" fill-rule="evenodd" xlink:href="#path-40"></use>
                        <rect stroke="#277A9F" stroke-width="2" x="1" y="1" width="38" height="6"></rect>
                    </g>
                </g>
                <g id="3" transform="translate(378.000000, 120.998301)">
                    <g id="Rectangle">
                        <use fill="#EAF1CA" fill-rule="evenodd" xlink:href="#path-41"></use>
                        <rect stroke="#277A9F" stroke-width="2" x="1" y="1" width="38" height="38"></rect>
                    </g>
                    <g id="Rectangle">
                        <use fill="#EAF1CA" fill-rule="evenodd" xlink:href="#path-42"></use>
                        <rect stroke="#277A9F" stroke-width="2" x="1" y="33" width="38" height="6"></rect>
                    </g>
                    <polygon id="Path-2" stroke="#277A9F" stroke-width="2" fill="#EAF1CA" points="1.12036133 1.10986328 7.07309934 1.10986328 38.982307 33.0210452 38.982307 39.1098633 33.0931488 39.1098633 1.01576308 7.03049294"></polygon>
                    <g id="Rectangle" transform="translate(4.000000, 20.000000) rotate(-270.000000) translate(-4.000000, -20.000000) ">
                        <use fill="#EAF1CA" fill-rule="evenodd" xlink:href="#path-43"></use>
                        <rect stroke="#277A9F" stroke-width="2" x="-15" y="17" width="38" height="6"></rect>
                    </g>
                    <g id="Rectangle" transform="translate(36.000000, 20.000000) rotate(-270.000000) translate(-36.000000, -20.000000) ">
                        <use fill="#EAF1CA" fill-rule="evenodd" xlink:href="#path-44"></use>
                        <rect stroke="#277A9F" stroke-width="2" x="17" y="17" width="38" height="6"></rect>
                    </g>
                    <g id="Rectangle">
                        <use fill="#EAF1CA" fill-rule="evenodd" xlink:href="#path-45"></use>
                        <rect stroke="#277A9F" stroke-width="2" x="1" y="1" width="38" height="6"></rect>
                    </g>
                </g>
                <g id="3" transform="translate(226.000000, 82.998301)">
                    <g id="Rectangle">
                        <use fill="#EAF1CA" fill-rule="evenodd" xlink:href="#path-46"></use>
                        <rect stroke="#277A9F" stroke-width="2" x="1" y="1" width="38" height="38"></rect>
                    </g>
                    <g id="Rectangle">
                        <use fill="#EAF1CA" fill-rule="evenodd" xlink:href="#path-47"></use>
                        <rect stroke="#277A9F" stroke-width="2" x="1" y="33" width="38" height="6"></rect>
                    </g>
                    <polygon id="Path-2" stroke="#277A9F" stroke-width="2" fill="#EAF1CA" points="1.12036133 1.10986328 7.07309934 1.10986328 38.982307 33.0210452 38.982307 39.1098633 33.0931488 39.1098633 1.01576308 7.03049294"></polygon>
                    <g id="Rectangle" transform="translate(4.000000, 20.000000) rotate(-270.000000) translate(-4.000000, -20.000000) ">
                        <use fill="#EAF1CA" fill-rule="evenodd" xlink:href="#path-48"></use>
                        <rect stroke="#277A9F" stroke-width="2" x="-15" y="17" width="38" height="6"></rect>
                    </g>
                    <g id="Rectangle" transform="translate(36.000000, 20.000000) rotate(-270.000000) translate(-36.000000, -20.000000) ">
                        <use fill="#EAF1CA" fill-rule="evenodd" xlink:href="#path-49"></use>
                        <rect stroke="#277A9F" stroke-width="2" x="17" y="17" width="38" height="6"></rect>
                    </g>
                    <g id="Rectangle">
                        <use fill="#EAF1CA" fill-rule="evenodd" xlink:href="#path-50"></use>
                        <rect stroke="#277A9F" stroke-width="2" x="1" y="1" width="38" height="6"></rect>
                    </g>
                </g>
                <g id="3" transform="translate(264.000000, 120.998301)">
                    <g id="Rectangle">
                        <use fill="#EAF1CA" fill-rule="evenodd" xlink:href="#path-51"></use>
                        <rect stroke="#277A9F" stroke-width="2" x="1" y="1" width="38" height="38"></rect>
                    </g>
                    <g id="Rectangle">
                        <use fill="#EAF1CA" fill-rule="evenodd" xlink:href="#path-52"></use>
                        <rect stroke="#277A9F" stroke-width="2" x="1" y="33" width="38" height="6"></rect>
                    </g>
                    <polygon id="Path-2" stroke="#277A9F" stroke-width="2" fill="#EAF1CA" points="1.12036133 1.10986328 7.07309934 1.10986328 38.982307 33.0210452 38.982307 39.1098633 33.0931488 39.1098633 1.01576308 7.03049294"></polygon>
                    <g id="Rectangle" transform="translate(4.000000, 20.000000) rotate(-270.000000) translate(-4.000000, -20.000000) ">
                        <use fill="#EAF1CA" fill-rule="evenodd" xlink:href="#path-53"></use>
                        <rect stroke="#277A9F" stroke-width="2" x="-15" y="17" width="38" height="6"></rect>
                    </g>
                    <g id="Rectangle" transform="translate(36.000000, 20.000000) rotate(-270.000000) translate(-36.000000, -20.000000) ">
                        <use fill="#EAF1CA" fill-rule="evenodd" xlink:href="#path-54"></use>
                        <rect stroke="#277A9F" stroke-width="2" x="17" y="17" width="38" height="6"></rect>
                    </g>
                    <g id="Rectangle">
                        <use fill="#EAF1CA" fill-rule="evenodd" xlink:href="#path-55"></use>
                        <rect stroke="#277A9F" stroke-width="2" x="1" y="1" width="38" height="6"></rect>
                    </g>
                </g>
                <mask id="mask-57" fill="white">
                    <use xlink:href="#path-56"></use>
                </mask>
                <g id="Rectangle-11">
                    <use fill="black" fill-opacity="1" filter="url(#filter-58)" xlink:href="#path-56"></use>
                    <use fill="#616A78" fill-rule="evenodd" xlink:href="#path-56"></use>
                </g>
                <rect id="Rectangle-12" fill="#4F5865" mask="url(#mask-57)" x="79" y="125" width="454" height="28"></rect>
                <text id="$-draft-up---&gt;-Build" mask="url(#mask-57)" font-family="DejaVuSansMono-Bold, DejaVu Sans Mono" font-size="8" font-weight="bold" line-spacing="10" fill="#FFFFFF">
                    <tspan x="118" y="171">$ draft up</tspan>
                    <tspan x="118" y="181"></tspan>
                    <tspan x="118" y="191" font-family="DejaVuSansMono, DejaVu Sans Mono" font-weight="300" line-spacing="16">--&gt; Building from Dockerfile</tspan>
                    <tspan x="118" y="207" font-family="DejaVuSansMono, DejaVu Sans Mono" font-weight="300" line-spacing="16">--&gt; Deploying to Kubernetes</tspan>
                    <tspan x="118" y="223" font-family="DejaVuSansMono, DejaVu Sans Mono" font-weight="300" line-spacing="16">--&gt; Release unicorn-biscuit does not exist. Creating it now.</tspan>
                    <tspan x="406.984375" y="223" line-spacing="16"></tspan>
                    <tspan x="118" y="239" line-spacing="16">--&gt; Status: DEPLOYED</tspan>
                    <tspan x="214.328125" y="239" font-family="DejaVuSansMono, DejaVu Sans Mono" font-weight="300" line-spacing="16"></tspan>
                    <tspan x="118" y="255" font-family="DejaVuSansMono, DejaVu Sans Mono" font-weight="300" line-spacing="16">--&gt; Notes:  </tspan>
                    <tspan x="118" y="271" font-family="DejaVuSansMono, DejaVu Sans Mono" font-weight="300" line-spacing="16"></tspan>
                    <tspan x="118" y="287" font-family="DejaVuSansMono, DejaVu Sans Mono" font-weight="300">   http://unicorn-biscuit.draft.mydomain.me to access app</tspan>
                    <tspan x="118" y="297"></tspan>
                    <tspan x="118" y="307" line-spacing="15">   Watching local files for changes...</tspan>
                </text>
            </g>
        </g>
    </g>
</svg>