<?xml version="1.0" encoding="UTF-8"?>
<svg width="462px" height="280px" viewBox="0 0 462 280" version="1.1" xmlns="http://www.w3.org/2000/svg" xmlns:xlink="http://www.w3.org/1999/xlink">
    <!-- Generator: Sketch 46 (44423) - http://www.bohemiancoding.com/sketch -->
    <title>Illustration Languagfes</title>
    <desc>Created with Sketch.</desc>
    <defs>
        <linearGradient x1="50%" y1="0%" x2="50%" y2="100%" id="linearGradient-1">
            <stop stop-color="#669BBE" offset="0%"></stop>
            <stop stop-color="#37B0E7" offset="100%"></stop>
        </linearGradient>
        <linearGradient x1="95.4603795%" y1="50%" x2="0%" y2="50%" id="linearGradient-2">
            <stop stop-color="#E8F1F1" offset="0%"></stop>
            <stop stop-color="#F4F7F7" offset="100%"></stop>
        </linearGradient>
        <path d="M0.0595485416,120 C1.12523225,124.46169 16.3611701,128 35,128 C53.6388299,128 68.8747678,124.46169 69.9404515,120 L70,120 L70,0 L0,0 L0,120 L0.0595485416,120 Z" id="path-3"></path>
        <path d="M0.0595485416,120 C1.12523225,124.46169 16.3611701,128 35,128 C53.6388299,128 68.8747678,124.46169 69.9404515,120 L70,120 L70,0 L0,0 L0,120 L0.0595485416,120 Z" id="path-5"></path>
        <path d="M0.0595485416,120 C1.12523225,124.46169 16.3611701,128 35,128 C53.6388299,128 68.8747678,124.46169 69.9404515,120 L70,120 L70,0 L0,0 L0,120 L0.0595485416,120 Z" id="path-7"></path>
        <path d="M0.0595485416,120 C1.12523225,124.46169 16.3611701,128 35,128 C53.6388299,128 68.8747678,124.46169 69.9404515,120 L70,120 L70,0 L0,0 L0,120 L0.0595485416,120 Z" id="path-9"></path>
        <path d="M0.0595485416,120 C1.12523225,124.46169 16.3611701,128 35,128 C53.6388299,128 68.8747678,124.46169 69.9404515,120 L70,120 L70,0 L0,0 L0,120 L0.0595485416,120 Z" id="path-11"></path>
        <path d="M0.0595485416,120 C1.12523225,124.46169 16.3611701,128 35,128 C53.6388299,128 68.8747678,124.46169 69.9404515,120 L70,120 L70,0 L0,0 L0,120 L0.0595485416,120 Z" id="path-13"></path>
        <path d="M0.0595485416,120 C1.12523225,124.46169 16.3611701,128 35,128 C53.6388299,128 68.8747678,124.46169 69.9404515,120 L70,120 L70,0 L0,0 L0,120 L0.0595485416,120 Z" id="path-15"></path>
        <path d="M0.0595485416,120 C1.12523225,124.46169 16.3611701,128 35,128 C53.6388299,128 68.8747678,124.46169 69.9404515,120 L70,120 L70,0 L0,0 L0,120 L0.0595485416,120 Z" id="path-17"></path>
    </defs>
    <g id="Page-1" stroke="none" stroke-width="1" fill="none" fill-rule="evenodd">
        <g id="Artboard" transform="translate(-774.000000, -1049.000000)">
            <g id="Illustration-Languagfes" transform="translate(774.000000, 1051.000000)">
                <polygon id="Path-15" fill="url(#linearGradient-1)" points="145.15625 117.824219 46.3671875 150.125 257.222656 212.800781 368.84375 192.121094 385.441406 159.359375"></polygon>
                <g id="Pack-Can" transform="translate(134.000000, 0.000000)">
                    <g id="Group-7" transform="translate(0.000000, 9.000000)">
                        <mask id="mask-4" fill="white">
                            <use xlink:href="#path-3"></use>
                        </mask>
                        <use id="Oval-5" fill="url(#linearGradient-2)" xlink:href="#path-3"></use>
                        <rect id="Path" fill="#FFFFFF" mask="url(#mask-4)" x="-90.3040405" y="73.7176513" width="203" height="28.9546968"></rect>
                    </g>
                    <ellipse id="Oval-5" stroke="#37B0E7" stroke-width="3" fill="#FFFFFF" cx="35" cy="8.5" rx="35" ry="8.5"></ellipse>
                </g>
                <g id="Pack-Can" transform="translate(85.000000, 19.000000)">
                    <g id="Group-7" transform="translate(0.000000, 9.000000)">
                        <mask id="mask-6" fill="white">
                            <use xlink:href="#path-5"></use>
                        </mask>
                        <use id="Oval-5" fill="url(#linearGradient-2)" xlink:href="#path-5"></use>
                        <rect id="Path" fill="#FFFFFF" mask="url(#mask-6)" x="-90.3040405" y="73.7176513" width="203" height="28.9546968"></rect>
                    </g>
                    <ellipse id="Oval-5" stroke="#37B0E7" stroke-width="3" fill="#FFFFFF" cx="35" cy="8.5" rx="35" ry="8.5"></ellipse>
                </g>
                <g id="Pack-Can" transform="translate(187.000000, 17.000000)">
                    <g id="Group-7" transform="translate(0.000000, 9.000000)">
                        <mask id="mask-8" fill="white">
                            <use xlink:href="#path-7"></use>
                        </mask>
                        <use id="Oval-5" fill="url(#linearGradient-2)" xlink:href="#path-7"></use>
                        <rect id="Path" fill="#FFFFFF" mask="url(#mask-8)" x="-90.3040405" y="73.7176513" width="203" height="28.9546968"></rect>
                    </g>
                    <ellipse id="Oval-5" stroke="#37B0E7" stroke-width="3" fill="#FFFFFF" cx="35" cy="8.5" rx="35" ry="8.5"></ellipse>
                </g>
                <g id="Pack-Can" transform="translate(138.000000, 36.000000)">
                    <g id="Group-7" transform="translate(0.000000, 9.000000)">
                        <mask id="mask-10" fill="white">
                            <use xlink:href="#path-9"></use>
                        </mask>
                        <use id="Oval-5" fill="url(#linearGradient-2)" xlink:href="#path-9"></use>
                        <rect id="Path" fill="#FFFFFF" mask="url(#mask-10)" x="-90.3040405" y="73.7176513" width="203" height="28.9546968"></rect>
                    </g>
                    <ellipse id="Oval-5" stroke="#37B0E7" stroke-width="3" fill="#FFFFFF" cx="35" cy="8.5" rx="35" ry="8.5"></ellipse>
                </g>
                <g id="Pack-Can" transform="translate(284.000000, 50.000000)">
                    <g id="Group-7" transform="translate(0.000000, 9.000000)">
                        <mask id="mask-12" fill="white">
                            <use xlink:href="#path-11"></use>
                        </mask>
                        <use id="Oval-5" fill="url(#linearGradient-2)" xlink:href="#path-11"></use>
                        <rect id="Path" fill="#FFFFFF" mask="url(#mask-12)" x="-90.3040405" y="73.7176513" width="203" height="28.9546968"></rect>
                    </g>
                    <ellipse id="Oval-5" stroke="#37B0E7" stroke-width="3" fill="#FFFFFF" cx="35" cy="8.5" rx="35" ry="8.5"></ellipse>
                </g>
                <g id="Pack-Can" transform="translate(235.000000, 69.000000)">
                    <g id="Group-7" transform="translate(0.000000, 9.000000)">
                        <mask id="mask-14" fill="white">
                            <use xlink:href="#path-13"></use>
                        </mask>
                        <use id="Oval-5" fill="url(#linearGradient-2)" xlink:href="#path-13"></use>
                        <rect id="Path" fill="#FFFFFF" mask="url(#mask-14)" x="-90.3040405" y="73.7176513" width="203" height="28.9546968"></rect>
                    </g>
                    <ellipse id="Oval-5" stroke="#37B0E7" stroke-width="3" fill="#FFFFFF" cx="35" cy="8.5" rx="35" ry="8.5"></ellipse>
                </g>
                <g id="Pack-Can" transform="translate(337.000000, 67.000000)">
                    <g id="Group-7" transform="translate(0.000000, 9.000000)">
                        <mask id="mask-16" fill="white">
                            <use xlink:href="#path-15"></use>
                        </mask>
                        <use id="Oval-5" fill="url(#linearGradient-2)" xlink:href="#path-15"></use>
                        <rect id="Path" fill="#FFFFFF" mask="url(#mask-16)" x="-90.3040405" y="73.7176513" width="203" height="28.9546968"></rect>
                    </g>
                    <ellipse id="Oval-5" stroke="#37B0E7" stroke-width="3" fill="#FFFFFF" cx="35" cy="8.5" rx="35" ry="8.5"></ellipse>
                </g>
                <g id="Pack-Can" transform="translate(393.000000, 194.000000) rotate(-90.000000) translate(-393.000000, -194.000000) translate(357.500000, 125.500000)">
                    <g id="Group-7" transform="translate(1.000000, 9.000000)">
                        <mask id="mask-18" fill="white">
                            <use xlink:href="#path-17"></use>
                        </mask>
                        <use id="Oval-5" fill="#50E3C2" xlink:href="#path-17"></use>
                        <rect id="Path" fill-opacity="0.17" fill="#FFFFFF" mask="url(#mask-18)" transform="translate(10.195959, 42.195000) scale(-1, 1) translate(-10.195959, -42.195000) " x="-91.3040405" y="27.7176513" width="203" height="28.9546968"></rect>
                        <text id="Type-something" mask="url(#mask-18)" font-family="DejaVuSansMono-Bold, DejaVu Sans Mono" font-size="8" font-weight="bold" fill="#FFFFFF">
                            <tspan x="28" y="-248">Type something</tspan>
                        </text>
                    </g>
                    <ellipse id="Oval-5" stroke="#37B0E7" stroke-width="3" fill="#50E3C2" cx="35" cy="8.5" rx="35" ry="8.5"></ellipse>
                </g>
                <ellipse id="Oval-9" fill="#37B0E7" cx="333" cy="214" rx="2" ry="8"></ellipse>
                <polyline id="Path-7" stroke="#497898" stroke-width="4" stroke-dasharray="6,4" points="181.154297 258.393002 303.419699 258.393002 303.419699 215.189941 332.993723 215.189941"></polyline>
                <path d="M202.369141,229.839844 L299.553753,229.839844" id="Path-14" stroke="#497898" stroke-width="4" stroke-dasharray="6,4"></path>
                <rect id="Rectangle-13" fill="#497898" x="0" y="215" width="171" height="25" rx="2"></rect>
                <rect id="Rectangle-13" fill="#497898" x="20" y="244" width="171" height="25" rx="2"></rect>
                <polygon id="Path-4" fill="#FFFFFF" points="143.652344 200.615234 185.168535 200.615234 205.859375 219.191406 205.859375 275.334132 143.798483 275.334132"></polygon>
                <path d="M205.53571,214.96429 C206.36905,215.79762 207.08333,216.92856 207.67857,218.35714 C208.27381,219.78572 208.57143,221.09523 208.57143,222.28571 L208.57143,273.714286 C208.57143,274.904768 208.15477,275.916663 207.32143,276.75 C206.48809,277.583337 205.4762,278 204.28571,278 L144.285714,278 C143.095232,278 142.083337,277.583337 141.25,276.75 C140.416663,275.916663 140,274.904768 140,273.714286 L140,202.28571 C140,201.09523 140.416663,200.08334 141.25,199.25 C142.083337,198.41666 143.095232,198 144.285714,198 L184.28571,198 C185.4762,198 186.78571,198.29762 188.21429,198.89286 C189.64286,199.4881 190.77381,200.20238 191.60714,201.03571 L205.53571,214.96429 Z M185.71429,204.07143 L185.71429,220.85714 L202.5,220.85714 C202.20238,219.99404 201.875,219.38393 201.51786,219.02679 L187.54464,205.05357 C187.1875,204.69643 186.57739,204.36905 185.71429,204.07143 Z M202.85714,272.285714 L202.85714,226.57143 L184.28571,226.57143 C183.09523,226.57143 182.08334,226.15477 181.25,225.32143 C180.41666,224.48809 180,223.4762 180,222.28571 L180,203.71429 L145.714286,203.71429 L145.714286,272.285714 L202.85714,272.285714 Z" id="Page-1" fill="#497898"></path>
                <text id="+" opacity="0.5" font-family="DejaVuSansMono-Bold, DejaVu Sans Mono" font-size="24" font-weight="bold" fill="#497898">
                    <tspan x="156" y="239">+</tspan>
                </text>
                <text id="Dockerfile" font-family="DejaVuSansMono-Bold, DejaVu Sans Mono" font-size="8" font-weight="bold" letter-spacing="-0.200000003" fill="#497898">
                    <tspan x="152" y="257">Dockerfil</tspan>
                    <tspan x="193.547656" y="257">e</tspan>
                </text>
                <text id="Ready-to-sail!" font-family="DejaVuSansMono-Bold, DejaVu Sans Mono" font-size="8" font-weight="bold" fill="#FFFFFF">
                    <tspan x="29" y="259">Ready to sail!</tspan>
                </text>
                <text id="Java-application-det" font-family="DejaVuSansMono-Bold, DejaVu Sans Mono" font-size="8" font-weight="bold" fill="#FFFFFF">
                    <tspan x="8" y="230">Java application detected</tspan>
                </text>
            </g>
        </g>
    </g>
</svg>