<?xml version="1.0" encoding="UTF-8"?>
<svg width="119px" height="86px" viewBox="0 0 119 86" version="1.1" xmlns="http://www.w3.org/2000/svg" xmlns:xlink="http://www.w3.org/1999/xlink">
    <!-- Generator: Sketch 46 (44423) - http://www.bohemiancoding.com/sketch -->
    <title>planet l8s rings</title>
    <desc>Created with Sketch.</desc>
    <defs></defs>
    <g id="Page-1" stroke="none" stroke-width="1" fill="none" fill-rule="evenodd">
        <g id="Artboard" transform="translate(-928.000000, -189.000000)">
            <g id="Hero-Area" transform="translate(-80.000000, 49.000000)">
                <g id="Sky">
                    <g id="planet-l8s-rings" transform="translate(1067.487185, 182.887524) rotate(-13.000000) translate(-1067.487185, -182.887524) translate(1010.987185, 141.887524)">
                        <circle id="Oval-4" stroke="#3072E3" stroke-width="3" fill="#FFFFFF" cx="56" cy="41" r="41"></circle>
                        <g id="k8s-logo" transform="translate(25.593315, 9.346312)" fill-rule="nonzero">
                            <path d="M57.2744324,13.6206501 C56.9164779,12.4751955 56.0573869,11.5445137 54.9835233,10.9717864 L33.148296,0.519513717 C32.5755688,0.23315008 31.9312506,0.161559171 31.3585233,0.161559171 C30.785796,0.161559171 30.1414779,0.161559171 29.5687506,0.304740989 L7.73352331,10.8286046 C6.65965967,11.329741 5.87215967,12.2604228 5.58579604,13.4774683 L0.216477856,37.0308774 C0.00170512905,38.2479228 0.288068765,39.4649683 1.00397786,40.467241 L16.1096597,59.1524683 C16.9687506,60.0115592 18.185796,60.5842864 19.4028415,60.6558774 L43.4573869,60.6558774 C44.7460233,60.7990592 45.9630688,60.2263319 46.7505688,59.1524683 L61.8562506,40.467241 C62.5721597,39.4649683 62.8585233,38.2479228 62.7153415,37.0308774 L57.2744324,13.6206501 Z" id="Shape" fill="#326DE6"></path>
                            <path d="M53.9096597,36.1001955 L53.9096597,36.1001955 C53.8380688,36.1001955 53.7664779,36.1001955 53.7664779,36.0286046 C53.7664779,35.9570137 53.623296,35.9570137 53.4801142,35.9570137 C53.1937506,35.8854228 52.9073869,35.8854228 52.6210233,35.8854228 C52.4778415,35.8854228 52.3346597,35.8854228 52.1914779,35.8138319 L52.1198869,35.8138319 C51.3323869,35.742241 50.473296,35.5990592 49.685796,35.3842864 C49.4710233,35.3126955 49.2562506,35.0979228 49.1846597,34.8831501 C49.2562506,34.8831501 49.1846597,34.8831501 49.1846597,34.8831501 L49.1846597,34.8831501 L48.6119324,34.7399683 C48.898296,32.6638319 48.7551142,30.5161046 48.3255688,28.4399683 C47.8244324,26.3638319 46.9653415,24.3592864 45.8198869,22.5695137 L46.2494324,22.1399683 L46.2494324,22.1399683 L46.2494324,22.0683774 C46.2494324,21.8536046 46.3210233,21.567241 46.4642051,21.4240592 C47.1085233,20.8513319 47.7528415,20.4217864 48.4687506,19.992241 L48.4687506,19.992241 C48.6119324,19.9206501 48.7551142,19.8490592 48.898296,19.7774683 C49.1846597,19.6342864 49.3994324,19.4911046 49.685796,19.3479228 C49.7573869,19.2763319 49.8289779,19.2763319 49.9005688,19.204741 C49.9721597,19.1331501 49.9005688,19.1331501 49.9005688,19.0615592 L49.9005688,19.0615592 C50.5448869,18.5604228 50.6880688,17.7013319 50.1869324,17.0570137 C49.9721597,16.7706501 49.5426142,16.5558774 49.1846597,16.5558774 C48.8267051,16.5558774 48.4687506,16.6990592 48.1823869,16.9138319 L48.1823869,16.9138319 L48.110796,16.9854228 C48.0392051,17.0570137 47.9676142,17.1286046 47.8960233,17.1286046 C47.6812506,17.3433774 47.4664779,17.5581501 47.323296,17.7729228 C47.2517051,17.9161046 47.1085233,17.9876955 47.0369324,18.0592864 L47.0369324,18.0592864 C46.535796,18.6320137 45.8914779,19.204741 45.2471597,19.6342864 C45.1039779,19.7058774 44.960796,19.7774683 44.8176142,19.7774683 C44.7460233,19.7774683 44.6028415,19.7774683 44.5312506,19.7058774 L44.4596597,19.7058774 L43.8869324,20.0638319 C43.3142051,19.4911046 42.6698869,18.9183774 42.0971597,18.3456501 C39.448296,16.2695137 36.1551142,14.9808774 32.7903415,14.6229228 L32.7187506,14.0501955 L32.7187506,14.0501955 L32.7187506,14.1217864 C32.5039779,13.9786046 32.4323869,13.7638319 32.360796,13.5490592 C32.360796,12.7615592 32.360796,11.9740592 32.5039779,11.1149683 L32.5039779,11.0433774 C32.5039779,10.9001955 32.5755688,10.7570137 32.5755688,10.6138319 C32.6471597,10.3274683 32.6471597,10.0411046 32.7187506,9.75474099 L32.7187506,9.32519553 L32.7187506,9.32519553 C32.7903415,8.60928644 32.2176142,7.89337735 31.5017051,7.82178644 C31.0721597,7.75019553 30.6426142,7.96496826 30.2846597,8.32292281 C29.998296,8.60928644 29.8551142,8.96724099 29.8551142,9.32519553 L29.8551142,9.32519553 L29.8551142,9.68315008 C29.8551142,9.96951372 29.9267051,10.2558774 29.998296,10.542241 C30.0698869,10.6854228 30.0698869,10.8286046 30.0698869,10.9717864 L30.0698869,11.0433774 C30.2130688,11.8308774 30.2130688,12.6183774 30.2130688,13.4774683 C30.1414779,13.692241 30.0698869,13.9070137 29.8551142,14.0501955 L29.8551142,14.1933774 L29.8551142,14.1933774 L29.7835233,14.7661046 C28.9960233,14.8376955 28.2085233,14.9808774 27.3494324,15.1240592 C23.9846597,15.8399683 20.9062506,17.629741 18.5437506,20.1354228 L18.1142051,19.8490592 L18.0426142,19.8490592 C17.9710233,19.8490592 17.8994324,19.9206501 17.7562506,19.9206501 C17.6130688,19.9206501 17.4698869,19.8490592 17.3267051,19.7774683 C16.6823869,19.2763319 16.0380688,18.7036046 15.5369324,18.1308774 L15.5369324,18.1308774 C15.4653415,17.9876955 15.3221597,17.9161046 15.2505688,17.8445137 C15.035796,17.629741 14.8926142,17.4149683 14.6778415,17.2001955 C14.6062506,17.1286046 14.5346597,17.1286046 14.4630688,17.0570137 C14.3914779,16.9854228 14.3914779,16.9854228 14.3914779,16.9854228 L14.3914779,16.9854228 C14.1051142,16.7706501 13.7471597,16.6274683 13.3892051,16.6274683 C12.9596597,16.6274683 12.6017051,16.7706501 12.3869324,17.1286046 C11.9573869,17.7729228 12.1005688,18.6320137 12.673296,19.1331501 L12.673296,19.1331501 C12.7448869,19.1331501 12.7448869,19.204741 12.7448869,19.204741 C12.7448869,19.204741 12.8880688,19.3479228 12.9596597,19.3479228 C13.1744324,19.4911046 13.460796,19.6342864 13.7471597,19.7774683 C13.8903415,19.8490592 14.0335233,19.9206501 14.1767051,19.992241 L14.1767051,19.992241 C14.8926142,20.4217864 15.6085233,20.8513319 16.1812506,21.4240592 C16.3244324,21.567241 16.4676142,21.8536046 16.3960233,22.0683774 L16.3960233,21.9967864 L16.3960233,21.9967864 L16.8255688,22.4263319 C16.7539779,22.5695137 16.6823869,22.6411046 16.610796,22.7842864 C14.3914779,26.292241 13.460796,30.4445137 14.1051142,34.5251955 L13.5323869,34.6683774 L13.5323869,34.6683774 C13.5323869,34.7399683 13.460796,34.7399683 13.460796,34.7399683 C13.3892051,34.954741 13.1744324,35.0979228 12.9596597,35.2411046 C12.1721597,35.4558774 11.3846597,35.5990592 10.5255688,35.6706501 L10.5255688,35.6706501 C10.3823869,35.6706501 10.2392051,35.6706501 10.0960233,35.742241 C9.80965967,35.742241 9.52329604,35.8138319 9.2369324,35.8138319 C9.16534149,35.8138319 9.09375058,35.8854228 8.95056877,35.8854228 C8.87897786,35.8854228 8.87897786,35.8854228 8.80738695,35.9570137 L8.80738695,35.9570137 C8.01988695,36.1001955 7.51875058,36.8161046 7.6619324,37.6036046 C7.6619324,37.6036046 7.6619324,37.6036046 7.6619324,37.6036046 C7.80511422,38.2479228 8.4494324,38.6774683 9.09375058,38.6058774 C9.2369324,38.6058774 9.30852331,38.6058774 9.45170513,38.5342864 L9.45170513,38.5342864 C9.52329604,38.5342864 9.52329604,38.5342864 9.52329604,38.4626955 C9.52329604,38.3911046 9.73806877,38.4626955 9.80965967,38.4626955 C10.0960233,38.3911046 10.3823869,38.2479228 10.5971597,38.1763319 C10.7403415,38.104741 10.8835233,38.0331501 11.0267051,38.0331501 L11.098296,38.0331501 C11.885796,37.7467864 12.6017051,37.5320137 13.460796,37.3888319 L13.5323869,37.3888319 C13.7471597,37.3888319 13.9619324,37.4604228 14.1051142,37.6036046 C14.1767051,37.6036046 14.1767051,37.6751955 14.1767051,37.6751955 L14.1767051,37.6751955 L14.8210233,37.6036046 C15.8948869,40.8967864 17.8994324,43.8320137 20.6914779,45.979741 C21.335796,46.4808774 21.9085233,46.9104228 22.6244324,47.2683774 L22.2664779,47.7695137 L22.2664779,47.7695137 C22.2664779,47.8411046 22.3380688,47.8411046 22.3380688,47.8411046 C22.4812506,48.0558774 22.4812506,48.342241 22.4096597,48.5570137 C22.123296,49.2729228 21.6937506,49.9888319 21.2642051,50.6331501 L21.2642051,50.704741 C21.1926142,50.8479228 21.1210233,50.9195137 20.9778415,51.0626955 C20.8346597,51.2058774 20.6914779,51.492241 20.4767051,51.7786046 C20.4051142,51.8501955 20.4051142,51.9217864 20.3335233,51.9933774 C20.3335233,51.9933774 20.3335233,52.0649683 20.2619324,52.0649683 L20.2619324,52.0649683 C19.9039779,52.7808774 20.1903415,53.6399683 20.8346597,53.9979228 C20.9778415,54.0695137 21.1926142,54.1411046 21.335796,54.1411046 C21.9085233,54.1411046 22.4096597,53.7831501 22.6960233,53.2820137 L22.6960233,53.2820137 C22.6960233,53.2820137 22.6960233,53.2104228 22.7676142,53.2104228 C22.7676142,53.1388319 22.8392051,53.067241 22.910796,52.9956501 C22.9823869,52.7092864 23.1255688,52.4945137 23.1971597,52.2081501 L23.3403415,51.7786046 L23.3403415,51.7786046 C23.5551142,50.9911046 23.9130688,50.2751955 24.2710233,49.5592864 C24.4142051,49.3445137 24.6289779,49.2013319 24.8437506,49.129741 C24.9153415,49.129741 24.9153415,49.129741 24.9153415,49.0581501 L24.9153415,49.0581501 L25.2017051,48.4854228 C27.2062506,49.2729228 29.2823869,49.6308774 31.4301142,49.6308774 C32.7187506,49.6308774 34.0073869,49.4876955 35.2960233,49.129741 C36.0835233,48.9865592 36.8710233,48.7001955 37.5869324,48.4854228 L37.873296,48.9865592 L37.873296,48.9865592 C37.9448869,48.9865592 37.9448869,48.9865592 37.9448869,49.0581501 C38.1596597,49.129741 38.3744324,49.2729228 38.5176142,49.4876955 C38.8755688,50.2036046 39.2335233,50.9195137 39.448296,51.7070137 L39.448296,51.7786046 L39.5914779,52.2081501 C39.6630688,52.4945137 39.7346597,52.7808774 39.8778415,52.9956501 C39.9494324,53.067241 39.9494324,53.1388319 40.0210233,53.2104228 C40.0210233,53.2104228 40.0210233,53.2820137 40.0926142,53.2820137 L40.0926142,53.2820137 C40.3789779,53.7831501 40.8801142,54.1411046 41.4528415,54.1411046 C41.6676142,54.1411046 41.810796,54.0695137 42.0255688,53.9979228 C42.3119324,53.854741 42.598296,53.5683774 42.6698869,53.2104228 C42.7414779,52.8524683 42.7414779,52.4945137 42.598296,52.1365592 L42.598296,52.1365592 C42.598296,52.0649683 42.5267051,52.0649683 42.5267051,52.0649683 C42.5267051,51.9933774 42.4551142,51.9217864 42.3835233,51.8501955 C42.2403415,51.5638319 42.0971597,51.3490592 41.8823869,51.1342864 C41.810796,50.9911046 41.7392051,50.9195137 41.5960233,50.7763319 L41.5960233,50.6331501 C41.0948869,49.9888319 40.7369324,49.2729228 40.4505688,48.5570137 C40.3789779,48.342241 40.3789779,48.0558774 40.5221597,47.8411046 C40.5221597,47.7695137 40.5937506,47.7695137 40.5937506,47.7695137 L40.5937506,47.7695137 L40.3789779,47.1967864 C44.0301142,44.9774683 46.8221597,41.5411046 48.110796,37.4604228 L48.6835233,37.5320137 L48.6835233,37.5320137 C48.7551142,37.5320137 48.7551142,37.4604228 48.7551142,37.4604228 C48.898296,37.317241 49.1130688,37.2456501 49.3278415,37.2456501 L49.3994324,37.2456501 C50.1869324,37.3888319 50.9744324,37.6036046 51.6903415,37.8899683 L51.7619324,37.8899683 C51.9051142,37.9615592 52.048296,38.0331501 52.1914779,38.0331501 C52.4778415,38.1763319 52.6926142,38.3195137 52.9789779,38.3911046 C53.0505688,38.3911046 53.1221597,38.4626955 53.2653415,38.4626955 C53.3369324,38.4626955 53.3369324,38.4626955 53.4085233,38.5342864 L53.4085233,38.5342864 C53.5517051,38.6058774 53.623296,38.6058774 53.7664779,38.6058774 C54.410796,38.6058774 54.9835233,38.1763319 55.198296,37.6036046 C55.1267051,36.8161046 54.5539779,36.2433774 53.9096597,36.1001955 Z M33.2198869,33.8808774 L31.2869324,34.8115592 L29.3539779,33.8808774 L28.8528415,31.804741 L30.2130688,30.0865592 L32.360796,30.0865592 L33.7210233,31.804741 L33.2198869,33.8808774 Z M44.8892051,29.2274683 C45.2471597,30.7308774 45.3187506,32.2342864 45.1755688,33.7376955 L38.3744324,31.804741 L38.3744324,31.804741 C37.7301142,31.6615592 37.3721597,31.017241 37.5153415,30.3729228 C37.5869324,30.1581501 37.6585233,30.0149683 37.8017051,29.8717864 L43.1710233,25.0036046 C43.9585233,26.292241 44.5312506,27.7240592 44.8892051,29.2274683 Z M41.023296,22.354741 L35.1528415,26.5070137 C34.6517051,26.7933774 33.935796,26.7217864 33.5778415,26.2206501 C33.4346597,26.0774683 33.3630688,25.9342864 33.3630688,25.7195137 L32.9335233,18.4888319 C36.0835233,18.8467864 38.8755688,20.2070137 41.023296,22.354741 L41.023296,22.354741 Z M28.0653415,18.7036046 L29.4971597,18.417241 L29.1392051,25.5763319 L29.1392051,25.5763319 C29.1392051,26.2206501 28.5664779,26.7217864 27.9221597,26.7217864 C27.7073869,26.7217864 27.5642051,26.6501955 27.3494324,26.5786046 L21.4073869,22.354741 C23.2687506,20.5649683 25.5596597,19.2763319 28.0653415,18.7036046 Z M19.3312506,25.0036046 L24.6289779,29.7286046 L24.6289779,29.7286046 C25.1301142,30.1581501 25.2017051,30.8740592 24.7721597,31.3751955 C24.6289779,31.5899683 24.485796,31.6615592 24.1994324,31.7331501 L17.2551142,33.7376955 C17.0403415,30.7308774 17.7562506,27.6524683 19.3312506,25.0036046 Z M18.1142051,37.1024683 L25.2017051,35.8854228 C25.7744324,35.8854228 26.3471597,36.2433774 26.4187506,36.8161046 C26.4903415,37.0308774 26.4903415,37.317241 26.3471597,37.5320137 L26.3471597,37.5320137 L23.6267051,44.1183774 C21.1210233,42.4717864 19.1164779,39.9661046 18.1142051,37.1024683 Z M34.3653415,45.979741 C33.3630688,46.1945137 32.360796,46.3376955 31.2869324,46.3376955 C29.7835233,46.3376955 28.2085233,46.0513319 26.7767051,45.6217864 L30.2846597,39.2501955 C30.6426142,38.8206501 31.2153415,38.6774683 31.7164779,38.9638319 C31.9312506,39.1070137 32.0744324,39.2501955 32.2892051,39.4649683 L32.2892051,39.4649683 L35.7255688,45.6933774 C35.2960233,45.7649683 34.8664779,45.8365592 34.3653415,45.979741 Z M43.0994324,39.7513319 C42.0255688,41.4695137 40.5221597,42.9729228 38.8039779,44.0467864 L36.0119324,37.317241 C35.8687506,36.7445137 36.1551142,36.1717864 36.6562506,35.9570137 C36.8710233,35.8854228 37.085796,35.8138319 37.3005688,35.8138319 L44.4596597,37.0308774 C44.1017051,38.0331501 43.6721597,38.9638319 43.0994324,39.7513319 Z" id="Shape" fill="#FFFFFF"></path>
                        </g>
                        <path d="M16.6331055,30.2846069 C-5.23625479,36.5390102 -5.23625479,46.6794014 16.6331055,52.9338047 C38.5024659,59.1882079 73.9597047,59.1882079 95.829065,52.9338047 C117.698425,46.6794014 117.698425,36.5390102 95.829065,30.2846069" id="Oval-6" stroke="#6995E0" stroke-width="8"></path>
                    </g>
                </g>
            </g>
        </g>
    </g>
</svg>