<?xml version="1.0" encoding="UTF-8"?>
<svg width="94px" height="186px" viewBox="0 0 94 186" version="1.1" xmlns="http://www.w3.org/2000/svg" xmlns:xlink="http://www.w3.org/1999/xlink">
    <!-- Generator: Sketch 46 (44423) - http://www.bohemiancoding.com/sketch -->
    <title>Rocket (empty)</title>
    <desc>Created with Sketch.</desc>
    <defs></defs>
    <g id="Page-1" stroke="none" stroke-width="1" fill="none" fill-rule="evenodd">
        <g id="Artboard" transform="translate(-822.000000, -536.000000)">
            <g id="Rocket-(empty)" transform="translate(824.000000, 538.000000)">
                <polyline id="Path-11" stroke="#587792" stroke-width="3" fill="#F5F8FA" points="8.29042969 125.272001 2.71428571 132.087263 0 164.658692 5.42857143 167.372978 16.7797991 142.645941"></polyline>
                <polyline id="Path-11" stroke="#587792" stroke-width="3" fill="#F5F8FA" transform="translate(81.389900, 146.322489) scale(-1, 1) translate(-81.389900, -146.322489) " points="81.2904297 125.272001 75.7142857 132.087263 73 164.658692 78.4285714 167.372978 89.7797991 142.645941"></polyline>
                <g id="Group-2" transform="translate(6.000000, 0.000000)" stroke="#497898" stroke-width="3" fill="#F5F8F9">
                    <path d="M38.7546317,162.857143 L22.4,162.865625 L19.6857143,152.227958 C6.34651823,137.947492 0.0131848951,123.395316 0.685714286,108.571429 C2.39120591,70.9789954 12.1323661,39.2574777 16.9714286,27.1428571 C24.1988831,9.04888356 33.190346,0 38.6857143,0 C44.1810826,0 53.6112564,8.21190093 60.4,27.1428571 C64.5223214,38.6382812 74.1731106,71.1870175 76.6857143,108.571429 C77.9332961,127.133891 71.7809152,141.686068 58.2285714,152.227958 L54.9714286,162.865625 L41.0962333,162.865625 L38.7546317,162.857143 Z M38.8785714,111.257143 C50.2714168,111.257143 59.5071429,102.021417 59.5071429,90.6285714 C59.5071429,79.235726 50.2714168,70 38.8785714,70 C27.485726,70 18.25,79.235726 18.25,90.6285714 C18.25,102.021417 27.485726,111.257143 38.8785714,111.257143 Z" id="Path-9"></path>
                </g>
                <path d="M28.5245815,152 L61.1991542,152" id="Path-10" stroke="#527795" stroke-width="2"></path>
                <path d="M29.6102958,155 L60.1134399,155" id="Path-10" stroke="#527795" stroke-width="2"></path>
                <path d="M25.8102958,19 L62.2848685,19" id="Path-10" stroke="#527795" stroke-width="2"></path>
                <path d="M24.1817243,23.5 L63.9134399,23.5" id="Path-10" stroke="#527795" stroke-width="3"></path>
                <polygon id="Path-8" stroke="#527795" stroke-width="3" fill="#F2F6F9" points="44.6857143 128.114286 33.8285714 140.177778 39.2571429 182.4 50.1142857 182.4 55.5428571 140.177778"></polygon>
                <path d="M34.6480001,59 L33.0640001,59 L33.0640001,56.48 C33.0640001,56.287999 33.0140006,56.1320006 32.9140001,56.012 C32.8139996,55.8919994 32.6480012,55.832 32.4160001,55.832 L30.5920001,55.832 L30.5920001,59 L29.0080001,59 L29.0080001,50.6 L32.2240001,50.6 C32.6560022,50.6 33.0359984,50.6599994 33.3640001,50.78 C33.6920017,50.9000006 33.965999,51.0659989 34.1860001,51.278 C34.4060012,51.4900011 34.5739995,51.7359986 34.6900001,52.016 C34.8060006,52.2960014 34.8640001,52.5959984 34.8640001,52.916 L34.8640001,53.204 C34.8640001,53.5480017 34.772001,53.8699985 34.5880001,54.17 C34.4039991,54.4700015 34.120002,54.6999992 33.7360001,54.86 L33.7360001,55.076 C34.0160015,55.1080002 34.2379992,55.2159991 34.4020001,55.4 C34.5660009,55.5840009 34.6480001,55.8159986 34.6480001,56.096 L34.6480001,59 Z M30.5920001,54.32 L32.1040001,54.32 C32.488002,54.32 32.7799991,54.2300009 32.9800001,54.05 C33.1800011,53.8699991 33.2800001,53.6160016 33.2800001,53.288 L33.2800001,53.144 C33.2800001,52.8639986 33.1800011,52.622001 32.9800001,52.418 C32.7799991,52.213999 32.488002,52.112 32.1040001,52.112 L30.5920001,52.112 L30.5920001,54.32 Z M36.892,53.864 C36.892,52.7759946 37.1659973,51.932003 37.714,51.332 C38.2620028,50.731997 39.0199952,50.432 39.988,50.432 C40.9560049,50.432 41.7139973,50.731997 42.262,51.332 C42.8100028,51.932003 43.084,52.7759946 43.084,53.864 L43.084,55.736 C43.084,56.8560056 42.8100028,57.7079971 42.262,58.292 C41.7139973,58.8760029 40.9560049,59.168 39.988,59.168 C39.0199952,59.168 38.2620028,58.8760029 37.714,58.292 C37.1659973,57.7079971 36.892,56.8560056 36.892,55.736 L36.892,53.864 Z M39.988,57.728 C40.2760015,57.728 40.5159991,57.6820005 40.708,57.59 C40.900001,57.4979995 41.0559994,57.3680008 41.176,57.2 C41.2960006,57.0319992 41.3799998,56.8320012 41.428,56.6 C41.4760003,56.3679988 41.5,56.1120014 41.5,55.832 L41.5,53.768 C41.5,53.5039987 41.4720003,53.2560012 41.416,53.024 C41.3599997,52.7919988 41.2720006,52.5920008 41.152,52.424 C41.0319994,52.2559992 40.876001,52.1220005 40.684,52.022 C40.4919991,51.9219995 40.2600014,51.872 39.988,51.872 C39.7159987,51.872 39.484001,51.9219995 39.292,52.022 C39.0999991,52.1220005 38.9440006,52.2559992 38.824,52.424 C38.7039994,52.5920008 38.6160003,52.7919988 38.56,53.024 C38.5039997,53.2560012 38.476,53.5039987 38.476,53.768 L38.476,55.832 C38.476,56.1120014 38.4999998,56.3679988 38.548,56.6 C38.5960003,56.8320012 38.6799994,57.0319992 38.8,57.2 C38.9200006,57.3680008 39.0759991,57.4979995 39.268,57.59 C39.460001,57.6820005 39.6999986,57.728 39.988,57.728 Z M47.008,59 L45.424,59 L45.424,50.6 L47.008,50.6 L47.008,54.044 L47.356,54.044 L49.576,50.6 L51.364,50.6 L51.364,50.672 L48.772,54.692 L48.772,54.908 L51.508,58.928 L51.508,59 L49.648,59 L47.356,55.556 L47.008,55.556 L47.008,59 Z M56.356,59.168 C55.8839976,59.168 55.4600019,59.1100006 55.084,58.994 C54.7079981,58.8779994 54.3880013,58.716001 54.124,58.508 C53.8599987,58.299999 53.6560007,58.0540014 53.512,57.77 C53.3679993,57.4859986 53.296,57.1680018 53.296,56.816 L53.296,56.744 C53.296,56.4479985 53.3379996,56.1880011 53.422,55.964 C53.5060004,55.7399989 53.6179993,55.5480008 53.758,55.388 C53.8980007,55.2279992 54.0559991,55.0960005 54.232,54.992 C54.4080009,54.8879995 54.591999,54.8080003 54.784,54.752 L54.784,54.536 C54.6159991,54.4719997 54.4540008,54.3880005 54.298,54.284 C54.1419992,54.1799995 54.0060006,54.0540007 53.89,53.906 C53.7739994,53.7579993 53.6820003,53.582001 53.614,53.378 C53.5459996,53.173999 53.512,52.9440013 53.512,52.688 L53.512,52.616 C53.512,52.2719983 53.5919992,51.9640014 53.752,51.692 C53.9120008,51.4199986 54.1239987,51.1900009 54.388,51.002 C54.6520013,50.8139991 54.9539983,50.6720005 55.294,50.576 C55.6340017,50.4799995 55.9879981,50.432 56.356,50.432 C56.7240018,50.432 57.0779983,50.4799995 57.418,50.576 C57.7580017,50.6720005 58.0599987,50.8139991 58.324,51.002 C58.5880013,51.1900009 58.7999992,51.4199986 58.96,51.692 C59.1200008,51.9640014 59.2,52.2719983 59.2,52.616 L59.2,52.688 C59.2,52.9440013 59.1660003,53.173999 59.098,53.378 C59.0299996,53.582001 58.9380006,53.7579993 58.822,53.906 C58.7059994,54.0540007 58.5700008,54.1799995 58.414,54.284 C58.2579992,54.3880005 58.0960008,54.4719997 57.928,54.536 L57.928,54.752 C58.1200009,54.8080003 58.3039991,54.8879995 58.48,54.992 C58.6560009,55.0960005 58.8139993,55.2279992 58.954,55.388 C59.0940007,55.5480008 59.2059996,55.7399989 59.29,55.964 C59.3740004,56.1880011 59.416,56.4479985 59.416,56.744 L59.416,56.816 C59.416,57.1680018 59.3440007,57.4879986 59.2,57.776 C59.0559993,58.0640014 58.8520013,58.309999 58.588,58.514 C58.3239987,58.718001 58.0020019,58.8779994 57.622,58.994 C57.2419981,59.1100006 56.8200023,59.168 56.356,59.168 Z M56.356,57.656 C56.8280023,57.656 57.1919987,57.5500011 57.448,57.338 C57.7040013,57.1259989 57.832,56.8560016 57.832,56.528 C57.832,56.1999984 57.7040013,55.9300011 57.448,55.718 C57.1919987,55.5059989 56.8280023,55.4 56.356,55.4 C55.8839976,55.4 55.5200013,55.5059989 55.264,55.718 C55.0079987,55.9300011 54.88,56.1999984 54.88,56.528 C54.88,56.8560016 55.0079987,57.1259989 55.264,57.338 C55.5200013,57.5500011 55.8839976,57.656 56.356,57.656 Z M56.356,51.944 C55.9959982,51.944 55.6960012,52.0359991 55.456,52.22 C55.2159988,52.4040009 55.096,52.6359986 55.096,52.916 C55.096,53.1960014 55.2159988,53.4279991 55.456,53.612 C55.6960012,53.7960009 55.9959982,53.888 56.356,53.888 C56.7160018,53.888 57.0159988,53.7960009 57.256,53.612 C57.4960012,53.4279991 57.616,53.1960014 57.616,52.916 C57.616,52.6359986 57.4960012,52.4040009 57.256,52.22 C57.0159988,52.0359991 56.7160018,51.944 56.356,51.944 Z" id="ROK8" fill="#57AFE2"></path>
            </g>
        </g>
    </g>
</svg>